<svg id="visual" viewBox="0 0 1920 1080" width="1920" height="1080" xmlns="http://www.w3.org/2000/svg" xmlns:xlink="http://www.w3.org/1999/xlink" version="1.1"><rect x="0" y="0" width="1920" height="1080" fill="#05B3B2"></rect><defs><linearGradient id="grad1_0" x1="43.8%" y1="0%" x2="100%" y2="100%"><stop offset="14.444444444444446%" stop-color="#3e97ab" stop-opacity="1"></stop><stop offset="85.55555555555554%" stop-color="#3e97ab" stop-opacity="1"></stop></linearGradient></defs><defs><linearGradient id="grad1_1" x1="43.8%" y1="0%" x2="100%" y2="100%"><stop offset="14.444444444444446%" stop-color="#3e97ab" stop-opacity="1"></stop><stop offset="85.55555555555554%" stop-color="#389bad" stop-opacity="1"></stop></linearGradient></defs><defs><linearGradient id="grad1_2" x1="43.8%" y1="0%" x2="100%" y2="100%"><stop offset="14.444444444444446%" stop-color="#319faf" stop-opacity="1"></stop><stop offset="85.55555555555554%" stop-color="#389bad" stop-opacity="1"></stop></linearGradient></defs><defs><linearGradient id="grad1_3" x1="43.8%" y1="0%" x2="100%" y2="100%"><stop offset="14.444444444444446%" stop-color="#319faf" stop-opacity="1"></stop><stop offset="85.55555555555554%" stop-color="#29a3b1" stop-opacity="1"></stop></linearGradient></defs><defs><linearGradient id="grad1_4" x1="43.8%" y1="0%" x2="100%" y2="100%"><stop offset="14.444444444444446%" stop-color="#21a7b2" stop-opacity="1"></stop><stop offset="85.55555555555554%" stop-color="#29a3b1" stop-opacity="1"></stop></linearGradient></defs><defs><linearGradient id="grad1_5" x1="43.8%" y1="0%" x2="100%" y2="100%"><stop offset="14.444444444444446%" stop-color="#21a7b2" stop-opacity="1"></stop><stop offset="85.55555555555554%" stop-color="#18abb2" stop-opacity="1"></stop></linearGradient></defs><defs><linearGradient id="grad1_6" x1="43.8%" y1="0%" x2="100%" y2="100%"><stop offset="14.444444444444446%" stop-color="#0fafb2" stop-opacity="1"></stop><stop offset="85.55555555555554%" stop-color="#18abb2" stop-opacity="1"></stop></linearGradient></defs><defs><linearGradient id="grad1_7" x1="43.8%" y1="0%" x2="100%" y2="100%"><stop offset="14.444444444444446%" stop-color="#0fafb2" stop-opacity="1"></stop><stop offset="85.55555555555554%" stop-color="#05b3b2" stop-opacity="1"></stop></linearGradient></defs><defs><linearGradient id="grad2_0" x1="0%" y1="0%" x2="56.3%" y2="100%"><stop offset="14.444444444444446%" stop-color="#3e97ab" stop-opacity="1"></stop><stop offset="85.55555555555554%" stop-color="#3e97ab" stop-opacity="1"></stop></linearGradient></defs><defs><linearGradient id="grad2_1" x1="0%" y1="0%" x2="56.3%" y2="100%"><stop offset="14.444444444444446%" stop-color="#389bad" stop-opacity="1"></stop><stop offset="85.55555555555554%" stop-color="#3e97ab" stop-opacity="1"></stop></linearGradient></defs><defs><linearGradient id="grad2_2" x1="0%" y1="0%" x2="56.3%" y2="100%"><stop offset="14.444444444444446%" stop-color="#389bad" stop-opacity="1"></stop><stop offset="85.55555555555554%" stop-color="#319faf" stop-opacity="1"></stop></linearGradient></defs><defs><linearGradient id="grad2_3" x1="0%" y1="0%" x2="56.3%" y2="100%"><stop offset="14.444444444444446%" stop-color="#29a3b1" stop-opacity="1"></stop><stop offset="85.55555555555554%" stop-color="#319faf" stop-opacity="1"></stop></linearGradient></defs><defs><linearGradient id="grad2_4" x1="0%" y1="0%" x2="56.3%" y2="100%"><stop offset="14.444444444444446%" stop-color="#29a3b1" stop-opacity="1"></stop><stop offset="85.55555555555554%" stop-color="#21a7b2" stop-opacity="1"></stop></linearGradient></defs><defs><linearGradient id="grad2_5" x1="0%" y1="0%" x2="56.3%" y2="100%"><stop offset="14.444444444444446%" stop-color="#18abb2" stop-opacity="1"></stop><stop offset="85.55555555555554%" stop-color="#21a7b2" stop-opacity="1"></stop></linearGradient></defs><defs><linearGradient id="grad2_6" x1="0%" y1="0%" x2="56.3%" y2="100%"><stop offset="14.444444444444446%" stop-color="#18abb2" stop-opacity="1"></stop><stop offset="85.55555555555554%" stop-color="#0fafb2" stop-opacity="1"></stop></linearGradient></defs><defs><linearGradient id="grad2_7" x1="0%" y1="0%" x2="56.3%" y2="100%"><stop offset="14.444444444444446%" stop-color="#05b3b2" stop-opacity="1"></stop><stop offset="85.55555555555554%" stop-color="#0fafb2" stop-opacity="1"></stop></linearGradient></defs><g transform="translate(1920, 0)"><path d="M0 702C-89.2 684.3 -178.4 666.7 -262.9 634.7C-347.4 602.8 -427.1 556.5 -494.3 494.3C-561.4 432 -616 353.7 -648.6 268.6C-681.1 183.6 -691.5 91.8 -702 0L0 0Z" fill="#0ab1b2"></path><path d="M0 614.3C-78.1 598.8 -156.1 583.3 -230 555.4C-304 527.4 -373.7 487 -432.5 432.5C-491.3 378 -539 309.5 -567.5 235.1C-596 160.6 -605.1 80.3 -614.2 0L0 0Z" fill="#14adb2"></path><path d="M0 526.5C-66.9 513.2 -133.8 500 -197.2 476C-260.5 452.1 -320.3 417.4 -370.7 370.7C-421.1 324 -462 265.3 -486.4 201.5C-510.8 137.7 -518.7 68.8 -526.5 0L0 0Z" fill="#1da9b2"></path><path d="M0 438.8C-55.8 427.7 -111.5 416.7 -164.3 396.7C-217.1 376.7 -266.9 347.8 -308.9 308.9C-350.9 270 -385 221.1 -405.4 167.9C-425.7 114.7 -432.2 57.4 -438.7 0L0 0Z" fill="#25a5b1"></path><path d="M0 351C-44.6 342.2 -89.2 333.3 -131.5 317.4C-173.7 301.4 -213.6 278.3 -247.1 247.1C-280.7 216 -308 176.8 -324.3 134.3C-340.5 91.8 -345.8 45.9 -351 0L0 0Z" fill="#2da1b0"></path><path d="M0 263.3C-33.5 256.6 -66.9 250 -98.6 238C-130.3 226 -160.2 208.7 -185.4 185.4C-210.5 162 -231 132.6 -243.2 100.7C-255.4 68.8 -259.3 34.4 -263.2 0L0 0Z" fill="#349dae"></path><path d="M0 175.5C-22.3 171.1 -44.6 166.7 -65.7 158.7C-86.8 150.7 -106.8 139.1 -123.6 123.6C-140.4 108 -154 88.4 -162.1 67.2C-170.3 45.9 -172.9 22.9 -175.5 0L0 0Z" fill="#3b99ac"></path><path d="M0 87.8C-11.2 85.5 -22.3 83.3 -32.9 79.3C-43.4 75.3 -53.4 69.6 -61.8 61.8C-70.2 54 -77 44.2 -81.1 33.6C-85.1 22.9 -86.4 11.5 -87.7 0L0 0Z" fill="#3e97ab"></path></g><g transform="translate(0, 1080)"><path d="M0 -702C97.1 -697.2 194.1 -692.4 268.6 -648.6C343.2 -604.7 395.1 -521.7 452.5 -452.5C510 -383.4 572.8 -328 615.3 -254.9C657.8 -181.7 679.9 -90.9 702 0L0 0Z" fill="#0ab1b2"></path><path d="M0 -614.2C84.9 -610.1 169.9 -605.9 235.1 -567.5C300.3 -529.1 345.7 -456.5 396 -396C446.2 -335.5 501.2 -287 538.4 -223C575.6 -159 594.9 -79.5 614.3 0L0 0Z" fill="#14adb2"></path><path d="M0 -526.5C72.8 -522.9 145.6 -519.3 201.5 -486.4C257.4 -453.5 296.4 -391.3 339.4 -339.4C382.5 -287.5 429.6 -246 461.5 -191.2C493.3 -136.3 509.9 -68.2 526.5 0L0 0Z" fill="#1da9b2"></path><path d="M0 -438.7C60.7 -435.8 121.3 -432.8 167.9 -405.4C214.5 -377.9 247 -326.1 282.8 -282.8C318.7 -239.6 358 -205 384.6 -159.3C411.1 -113.6 424.9 -56.8 438.8 0L0 0Z" fill="#25a5b1"></path><path d="M0 -351C48.5 -348.6 97.1 -346.2 134.3 -324.3C171.6 -302.3 197.6 -260.9 226.3 -226.3C255 -191.7 286.4 -164 307.7 -127.4C328.9 -90.9 339.9 -45.4 351 0L0 0Z" fill="#2da1b0"></path><path d="M0 -263.2C36.4 -261.5 72.8 -259.7 100.7 -243.2C128.7 -226.8 148.2 -195.6 169.7 -169.7C191.2 -143.8 214.8 -123 230.7 -95.6C246.7 -68.2 255 -34.1 263.3 0L0 0Z" fill="#349dae"></path><path d="M0 -175.5C24.3 -174.3 48.5 -173.1 67.2 -162.1C85.8 -151.2 98.8 -130.4 113.1 -113.1C127.5 -95.8 143.2 -82 153.8 -63.7C164.4 -45.4 170 -22.7 175.5 0L0 0Z" fill="#3b99ac"></path><path d="M0 -87.7C12.1 -87.2 24.3 -86.6 33.6 -81.1C42.9 -75.6 49.4 -65.2 56.6 -56.6C63.7 -47.9 71.6 -41 76.9 -31.9C82.2 -22.7 85 -11.4 87.8 0L0 0Z" fill="#3e97ab"></path></g></svg>